<?xml version="1.0" encoding="UTF-8" standalone="no"?><!DOCTYPE svg PUBLIC "-//W3C//DTD SVG 1.1//EN" "http://www.w3.org/Graphics/SVG/1.1/DTD/svg11.dtd"><svg width="100%" height="100%" viewBox="0 0 4000 2250" version="1.1" xmlns="http://www.w3.org/2000/svg" xmlns:xlink="http://www.w3.org/1999/xlink" xml:space="preserve" xmlns:serif="http://www.serif.com/" style="fill-rule:evenodd;clip-rule:evenodd;stroke-miterlimit:8;background-color:white;"><path d="M341.398,1423.73c0,75.652 165.065,137.071 368.379,137.071c203.313,0 368.378,-61.419 368.378,-137.071c0,-75.651 -165.065,-137.071 -368.378,-137.071c-203.314,0 -368.379,61.42 -368.379,137.071Z" style="fill:#d9d9d9;stroke:#000;stroke-width:6.25px;"/><path d="M343.636,987.929c-0,-75.651 165.065,-137.071 368.378,-137.071c203.314,0 368.379,61.42 368.379,137.071c-0,75.652 -165.065,137.071 -368.379,137.071c-203.313,0 -368.378,-61.419 -368.378,-137.071Z" style="fill:none;stroke:#000;stroke-width:6.25px;"/><path d="M343.636,559.448c-0,-75.652 165.065,-137.071 368.378,-137.071c203.314,0 368.379,61.419 368.379,137.071c-0,75.651 -165.065,137.071 -368.379,137.071c-203.313,-0 -368.378,-61.42 -368.378,-137.071Z" style="fill:none;stroke:#000;stroke-width:6.25px;"/><path d="M715.14,696.519l-0,133.506l-6.25,0l-0,-133.506l6.25,-0Zm9.375,129.339l-12.5,25l-12.5,-25l25,0Z" style="fill-rule:nonzero;"/><path d="M708.89,1124.96l-1.95,140.827l6.25,0.086l1.949,-140.827l-6.249,-0.086Zm-11.266,136.531l12.153,25.17l12.845,-24.824l-24.998,-0.346Z" style="fill-rule:nonzero;"/><path d="M1424.78,1423.73c-0,75.652 165.065,137.071 368.378,137.071c203.314,0 368.379,-61.419 368.379,-137.071c-0,-75.651 -165.065,-137.071 -368.379,-137.071c-203.313,0 -368.378,61.42 -368.378,137.071Z" style="fill:#d9d9d9;stroke:#000;stroke-width:6.25px;"/><path d="M1427.01,559.448c0,-75.652 165.065,-137.071 368.379,-137.071c203.313,0 368.378,61.419 368.378,137.071c0,75.651 -165.065,137.071 -368.378,137.071c-203.314,-0 -368.379,-61.42 -368.379,-137.071Z" style="fill:none;stroke:#000;stroke-width:6.25px;"/><path d="M1796.28,1286.67l2.159,-569.306l-6.25,-0.024l-2.159,569.307l6.25,0.023Zm11.518,-565.104l-12.405,-25.047l-12.595,24.952l25,0.095Z" style="fill-rule:nonzero;"/><path d="M1427.01,1827.62c0,-75.652 165.065,-137.071 368.379,-137.071c203.313,0 368.378,61.419 368.378,137.071c0,75.651 -165.065,137.071 -368.378,137.071c-203.314,-0 -368.379,-61.42 -368.379,-137.071Z" style="fill:none;stroke:#000;stroke-width:6.25px;"/><path d="M1792.27,1690.61l-1.878,-108.922l6.249,-0.107l1.879,108.921l-6.25,0.108Zm-11.18,-104.594l12.067,-25.212l12.93,24.781l-24.997,0.431Z" style="fill-rule:nonzero;"/><path d="M2508.16,1423.73c-0,75.652 165.065,137.071 368.378,137.071c203.314,0 368.379,-61.419 368.379,-137.071c-0,-75.651 -165.065,-137.071 -368.379,-137.071c-203.313,0 -368.378,61.42 -368.378,137.071Z" style="fill:#d9d9d9;stroke:#000;stroke-width:6.25px;"/><path d="M2510.39,559.448c0,-75.652 165.065,-137.071 368.379,-137.071c203.313,0 368.378,61.419 368.378,137.071c0,75.651 -165.065,137.071 -368.378,137.071c-203.314,-0 -368.379,-61.42 -368.379,-137.071Z" style="fill:none;stroke:#000;stroke-width:6.25px;"/><path d="M2875.65,696.473l-1.936,133.509l6.25,0.091l1.936,-133.509l-6.25,-0.091Zm-11.249,129.207l12.136,25.178l12.861,-24.816l-24.997,-0.362Z" style="fill-rule:nonzero;"/><path d="M2510.39,1827.62c0,-75.652 165.065,-137.071 368.379,-137.071c203.313,0 368.378,61.419 368.378,137.071c0,75.651 -165.065,137.071 -368.378,137.071c-203.314,-0 -368.379,-61.42 -368.379,-137.071Z" style="fill:none;stroke:#000;stroke-width:6.25px;"/><path d="M2879.66,1560.75l1.878,108.922l-6.249,0.108l-1.878,-108.922l6.249,-0.108Zm11.18,104.594l-12.067,25.212l-12.93,-24.781l24.997,-0.431Z" style="fill-rule:nonzero;"/><path d="M2508.16,987.929c0,75.652 165.065,137.071 368.379,137.071c203.314,0 368.379,-61.419 368.379,-137.071c-0,-75.651 -165.065,-137.071 -368.379,-137.071c-203.314,0 -368.379,61.42 -368.379,137.071Z" style="fill:#d9d9d9;stroke:#000;stroke-width:6.25px;"/><g transform="matrix(4.16667,0,0,4.16667,0,0)"><text x="144.271px" y="338.4px" style="font-family:'ArialMT', 'Arial', sans-serif;font-size:16px;">tc<tspan x="156.828px 165.782px 174.736px 178.346px 187.3px " y="338.4px 338.4px 338.4px 338.4px 338.4px ">p_ini</tspan>t</text><text x="118.921px" y="357.6px" style="font-family:'ArialMT', 'Arial', sans-serif;font-size:16px;">(<tspan x="123.925px 133.374px 144.604px 154.951px 159.072px 163.193px 166.423px 174.996px 178.227px 182.347px 185.577px 194.151px 197.381px 200.611px 208.287px 216.861px " y="357.6px 357.6px 357.6px 357.6px 357.6px 357.6px 357.6px 357.6px 357.6px 357.6px 357.6px 357.6px 357.6px 357.6px 357.6px 357.6px ">TCP::initialize)</tspan></text></g><text x="550.035px" y="1015px" style="font-family:'ArialMT', 'Arial', sans-serif;font-size:66.667px;">d<tspan x="588.853px 627.672px 684.948px 723.766px 740.319px 779.137px 795.69px 834.509px 851.062px " y="1015px 1015px 1015px 1015px 1015px 1015px 1015px 1015px 1015px ">omaininit</tspan></text><text x="637.535px" y="586px" style="font-family:'ArialMT', 'Arial', sans-serif;font-size:66.667px;">m<tspan x="694.07px 732.149px 747.962px " y="586px 586px 586px ">ain</tspan></text><g transform="matrix(4.16667,0,0,4.16667,0,0)"><text x="97.338px" y="84px" style="font-family:'ArialMT', 'Arial', sans-serif;font-size:16px;">Sy<tspan x="116.174px 124.255px 128.783px " y="84px 84px 84px ">ste</tspan>m</text><text x="154.175px" y="84px" style="font-family:'ArialMT', 'Arial', sans-serif;font-size:16px;">In<tspan x="167.682px 171.319px 175.846px 179.482px 188.463px 192.099px 195.736px 203.818px 212.798px 217.325px 220.962px " y="84px 84px 84px 84px 84px 84px 84px 84px 84px 84px 84px ">itializatio</tspan>n</text></g><g transform="matrix(4.16667,0,0,4.16667,0,0)"><text x="396.845px" y="338.4px" style="font-family:'ArialMT', 'Arial', sans-serif;font-size:16px;">t<tspan x="401.418px 409.545px 418.572px 427.598px 431.28px 440.306px 449.332px 458.358px " y="338.4px 338.4px 338.4px 338.4px 338.4px 338.4px 338.4px 338.4px ">cp_input</tspan></text><text x="376.42px" y="357.6px" style="font-family:'ArialMT', 'Arial', sans-serif;font-size:16px;">(<tspan x="381.611px 392.145px 400.906px 408.769px 416.632px 425.393px 429.701px 440.236px 445.426px 450.617px 454.035px 461.897px 470.659px 479.42px " y="357.6px 357.6px 357.6px 357.6px 357.6px 357.6px 357.6px 357.6px 357.6px 357.6px 357.6px 357.6px 357.6px 357.6px ">PacketArrived)</tspan></text></g><text x="1628.73px" y="586px" style="font-family:'ArialMT', 'Arial', sans-serif;font-size:66.667px;">a<tspan x="1667.12px 1705.51px 1743.89px 1760.02px 1776.14px 1810.79px 1849.18px 1869.01px 1885.14px 1923.53px " y="586px 586px 586px 586px 586px 586px 586px 586px 586px 586px ">pplication</tspan></text><g transform="matrix(4.16667,0,0,4.16667,0,0)"><text x="404.124px" y="444.96px" style="font-family:'ArialMT', 'Arial', sans-serif;font-size:16px;">I<tspan x="408.255px " y="444.96px ">P</tspan></text><text x="423.247px" y="444.96px" style="font-family:'ArialMT', 'Arial', sans-serif;font-size:16px;">l<tspan x="426.488px 435.072px 442.758px 451.342px " y="444.96px 444.96px 444.96px 444.96px ">ayer</tspan></text></g><text x="2713.72px" y="1450px" style="font-family:'ArialMT', 'Arial', sans-serif;font-size:66.667px;">t<tspan x="2733.34px 2767.77px 2805.94px 2844.11px 2882.28px 2920.45px 2940.07px 2978.24px 3016.41px " y="1450px 1450px 1450px 1450px 1450px 1450px 1450px 1450px 1450px ">cp_output</tspan></text><text x="2712.11px" y="586px" style="font-family:'ArialMT', 'Arial', sans-serif;font-size:66.667px;">a<tspan x="2750.49px 2788.88px 2827.27px 2843.4px 2859.52px 2894.17px 2932.56px 2952.39px 2968.51px 3006.91px " y="586px 586px 586px 586px 586px 586px 586px 586px 586px 586px ">pplication</tspan></text><g transform="matrix(4.16667,0,0,4.16667,0,0)"><text x="664.135px" y="444.96px" style="font-family:'ArialMT', 'Arial', sans-serif;font-size:16px;">I<tspan x="668.266px " y="444.96px ">P</tspan></text><text x="683.258px" y="444.96px" style="font-family:'ArialMT', 'Arial', sans-serif;font-size:16px;">l<tspan x="686.499px 695.083px 702.769px 711.353px " y="444.96px 444.96px 444.96px 444.96px ">ayer</tspan></text></g><g transform="matrix(4.16667,0,0,4.16667,0,0)"><text x="645.418px" y="234px" style="font-family:'ArialMT', 'Arial', sans-serif;font-size:16px;">u<tspan x="654.189px 662.061px 670.831px 676.032px 681.85px 687.05px 695.82px 704.591px 713.362px 722.132px 730.004px " y="234px 234px 234px 234px 234px 234px 234px 234px 234px 234px 234px ">ser request</tspan></text><text x="630.623px" y="252.96px" style="font-family:'ArialMT', 'Arial', sans-serif;font-size:16px;">(<tspan x="635.65px 643.349px 651.048px 658.746px 662.891px 671.488px 684.515px 695.768px 704.366px 707.619px 710.873px 721.243px 729.84px 737.539px 745.238px " y="252.96px 252.96px 252.96px 252.96px 252.96px 252.96px 252.96px 252.96px 252.96px 252.96px 252.96px 252.96px 252.96px 252.96px 252.96px ">systemCallBack)</tspan></text></g><text x="1680.63px" y="350px" style="font-family:'ArialMT', 'Arial', sans-serif;font-size:66.667px;">R<tspan x="1726.62px 1761.54px 1792.72px 1827.63px 1840.29px 1871.47px " y="350px 350px 350px 350px 350px 350px ">eceive</tspan></text><g transform="matrix(4.16667,0,0,4.16667,0,0)"><text x="646.549px" y="84px" style="font-family:'ArialMT', 'Arial', sans-serif;font-size:16px;">S<tspan x="657.007px 664.794px 672.58px 676.812px 685.497px " y="84px 84px 84px 84px 84px ">ystem</tspan></text><text x="703.386px" y="84px" style="font-family:'ArialMT', 'Arial', sans-serif;font-size:16px;">c<tspan x="711.172px 719.857px 723.198px 726.539px " y="84px 84px 84px 84px ">alls</tspan></text></g><path d="M2879.66,1125l0.001,140.825l-6.25,0l-0.001,-140.825l6.25,0Zm9.376,136.658l-12.5,25l-12.5,-25l25,0Z" style="fill-rule:nonzero;"/><path d="M3348.69,782.411l-916.522,0l-0,401.027l-2190.07,0l0,445.809l3106.59,-0l-0,-846.836Z" style="fill:none;fill-rule:nonzero;stroke:#000;stroke-width:12.5px;"/></svg>
